# xmcd CD database file
#
# Track frame offsets:
#	150
#	26957
#	53777
#
# Disc length: 922 seconds
#
# Revision: 0
# Processed by: cddbd v1.5.1PL0 Copyright (c) Steve Scherf et al.
# Submitted via: CDex 1.51
#
DISCID=22039803
DTITLE=カーネーション - ルネッサンス
DYEAR=2005
DGENRE=Rock
TTITLE0=ルネッサンス
TTITLE1=ルネッサンス[instrumental]
TTITLE2=ルネッサンス[1st Home demo]
EXTD=YEAR: 2005
EXTT0=
EXTT1=
EXTT2=
PLAYORDER=
